<svg xmlns="http://www.w3.org/2000/svg" xmlns:xlink="http://www.w3.org/1999/xlink" width="100%" zoomAndPan="magnify" viewBox="75.9184 57.5109 103.6852 23.8219"  preserveAspectRatio="xMidYMid meet" version="1.0"><defs><g/></defs><g fill="#764b36" fill-opacity="1"><g transform="translate(77.352919, 80.249997)"><g><path d="M 7.859375 -10.828125 C 7.359375 -10.828125 7.023438 -10.671875 6.859375 -10.359375 C 6.703125 -10.046875 6.628906 -9.679688 6.640625 -9.265625 C 6.660156 -8.859375 6.671875 -8.476562 6.671875 -8.125 L 6.671875 -2.296875 C 6.671875 -1.203125 7.1875 -0.4375 8.21875 0 L 1.5 0 C 2.238281 -0.320312 2.695312 -0.800781 2.875 -1.4375 C 3.050781 -2.070312 3.140625 -2.742188 3.140625 -3.453125 C 3.140625 -4.679688 3.175781 -5.78125 3.25 -6.75 C 3.320312 -7.726562 3.625 -8.578125 4.15625 -9.296875 C 4.6875 -10.023438 5.671875 -10.59375 7.109375 -11 C 5.671875 -11.46875 4.632812 -12.125 4 -12.96875 C 3.363281 -13.8125 3.046875 -14.984375 3.046875 -16.484375 C 3.046875 -17.097656 3.0625 -17.742188 3.09375 -18.421875 C 3.125 -19.097656 3.039062 -19.726562 2.84375 -20.3125 C 2.65625 -20.90625 2.207031 -21.351562 1.5 -21.65625 L 14.453125 -21.65625 L 15.640625 -16.21875 C 14.992188 -17.75 14.015625 -18.976562 12.703125 -19.90625 C 11.390625 -20.832031 9.894531 -21.296875 8.21875 -21.296875 L 6.671875 -21.296875 L 6.671875 -13.828125 C 6.671875 -13.472656 6.660156 -13.085938 6.640625 -12.671875 C 6.628906 -12.265625 6.703125 -11.910156 6.859375 -11.609375 C 7.023438 -11.316406 7.359375 -11.171875 7.859375 -11.171875 L 9.765625 -11.171875 C 10.535156 -11.171875 11.125 -11.347656 11.53125 -11.703125 C 11.945312 -12.054688 12.269531 -12.515625 12.5 -13.078125 C 12.738281 -13.640625 12.976562 -14.210938 13.21875 -14.796875 L 13.21875 -7.15625 C 12.976562 -7.78125 12.738281 -8.367188 12.5 -8.921875 C 12.269531 -9.484375 11.953125 -9.941406 11.546875 -10.296875 C 11.148438 -10.648438 10.554688 -10.828125 9.765625 -10.828125 Z M 7.859375 -10.828125 "/></g></g></g><g fill="#764b36" fill-opacity="1"><g transform="translate(92.506372, 80.249997)"><g><path d="M 6.671875 -8.09375 L 6.671875 -0.359375 L 8.578125 -0.359375 C 10.304688 -0.359375 11.769531 -0.832031 12.96875 -1.78125 C 14.164062 -2.738281 15.039062 -4.03125 15.59375 -5.65625 L 14.671875 0 L 1.5 0 C 2.238281 -0.320312 2.6875 -0.800781 2.84375 -1.4375 C 3.007812 -2.070312 3.09375 -2.742188 3.09375 -3.453125 C 3.09375 -4.679688 3.128906 -5.78125 3.203125 -6.75 C 3.273438 -7.726562 3.582031 -8.578125 4.125 -9.296875 C 4.675781 -10.023438 5.671875 -10.59375 7.109375 -11 C 5.671875 -11.445312 4.632812 -12.097656 4 -12.953125 C 3.363281 -13.804688 3.046875 -14.96875 3.046875 -16.4375 C 3.046875 -17.050781 3.0625 -17.703125 3.09375 -18.390625 C 3.125 -19.085938 3.039062 -19.726562 2.84375 -20.3125 C 2.65625 -20.90625 2.207031 -21.351562 1.5 -21.65625 L 14.671875 -21.65625 L 15.640625 -16.21875 C 14.992188 -17.75 14.015625 -18.976562 12.703125 -19.90625 C 11.390625 -20.832031 9.894531 -21.296875 8.21875 -21.296875 L 6.671875 -21.296875 L 6.671875 -13.828125 C 6.671875 -13.472656 6.660156 -13.085938 6.640625 -12.671875 C 6.628906 -12.265625 6.703125 -11.910156 6.859375 -11.609375 C 7.023438 -11.316406 7.359375 -11.171875 7.859375 -11.171875 L 9.640625 -11.171875 C 10.429688 -11.171875 11.039062 -11.347656 11.46875 -11.703125 C 11.894531 -12.054688 12.222656 -12.503906 12.453125 -13.046875 C 12.691406 -13.597656 12.945312 -14.179688 13.21875 -14.796875 L 13.21875 -7.15625 C 12.976562 -7.78125 12.734375 -8.367188 12.484375 -8.921875 C 12.234375 -9.484375 11.898438 -9.941406 11.484375 -10.296875 C 11.078125 -10.648438 10.472656 -10.828125 9.671875 -10.828125 L 7.859375 -10.828125 C 7.359375 -10.828125 7.023438 -10.671875 6.859375 -10.359375 C 6.703125 -10.046875 6.628906 -9.675781 6.640625 -9.25 C 6.660156 -8.820312 6.671875 -8.4375 6.671875 -8.09375 Z M 6.671875 -8.09375 "/></g></g></g><g fill="#764b36" fill-opacity="1"><g transform="translate(109.42701, 80.249997)"><g><path d="M 18.875 0 C 19.925781 -0.46875 20.453125 -1.25 20.453125 -2.34375 L 20.453125 -19.3125 C 20.453125 -19.570312 20.410156 -19.835938 20.328125 -20.109375 L 14.453125 -2.609375 L 15.15625 -1.1875 C 14.894531 -1.1875 14.507812 -1.140625 14 -1.046875 C 13.5 -0.960938 13.019531 -0.832031 12.5625 -0.65625 C 12.113281 -0.476562 11.800781 -0.257812 11.625 0 L 3.625 -20.0625 C 3.59375 -19.945312 3.566406 -19.820312 3.546875 -19.6875 C 3.535156 -19.550781 3.53125 -19.425781 3.53125 -19.3125 L 3.53125 -2.34375 C 3.53125 -1.25 4.0625 -0.46875 5.125 0 L 1.640625 0 C 2.671875 -0.46875 3.1875 -1.25 3.1875 -2.34375 L 3.1875 -19.3125 C 3.1875 -20.394531 2.671875 -21.175781 1.640625 -21.65625 L 6.9375 -21.65625 L 14.234375 -3.046875 L 20.15625 -20.59375 C 20.03125 -20.851562 19.847656 -21.0625 19.609375 -21.21875 C 19.378906 -21.382812 19.132812 -21.53125 18.875 -21.65625 L 25.625 -21.65625 C 24.5625 -21.175781 24.03125 -20.394531 24.03125 -19.3125 L 24.03125 -2.34375 C 24.03125 -1.25 24.5625 -0.46875 25.625 0 Z M 18.875 0 "/></g></g></g><g fill="#764b36" fill-opacity="1"><g transform="translate(135.227782, 80.249997)"><g><path d="M 18.875 0 C 19.925781 -0.46875 20.453125 -1.25 20.453125 -2.34375 L 20.453125 -19.3125 C 20.453125 -19.570312 20.410156 -19.835938 20.328125 -20.109375 L 14.453125 -2.609375 L 15.15625 -1.1875 C 14.894531 -1.1875 14.507812 -1.140625 14 -1.046875 C 13.5 -0.960938 13.019531 -0.832031 12.5625 -0.65625 C 12.113281 -0.476562 11.800781 -0.257812 11.625 0 L 3.625 -20.0625 C 3.59375 -19.945312 3.566406 -19.820312 3.546875 -19.6875 C 3.535156 -19.550781 3.53125 -19.425781 3.53125 -19.3125 L 3.53125 -2.34375 C 3.53125 -1.25 4.0625 -0.46875 5.125 0 L 1.640625 0 C 2.671875 -0.46875 3.1875 -1.25 3.1875 -2.34375 L 3.1875 -19.3125 C 3.1875 -20.394531 2.671875 -21.175781 1.640625 -21.65625 L 6.9375 -21.65625 L 14.234375 -3.046875 L 20.15625 -20.59375 C 20.03125 -20.851562 19.847656 -21.0625 19.609375 -21.21875 C 19.378906 -21.382812 19.132812 -21.53125 18.875 -21.65625 L 25.625 -21.65625 C 24.5625 -21.175781 24.03125 -20.394531 24.03125 -19.3125 L 24.03125 -2.34375 C 24.03125 -1.25 24.5625 -0.46875 25.625 0 Z M 18.875 0 "/></g></g></g><g fill="#764b36" fill-opacity="1"><g transform="translate(161.028554, 80.249997)"><g><path d="M 6.671875 -8.09375 L 6.671875 -0.359375 L 8.578125 -0.359375 C 10.304688 -0.359375 11.769531 -0.832031 12.96875 -1.78125 C 14.164062 -2.738281 15.039062 -4.03125 15.59375 -5.65625 L 14.671875 0 L 1.5 0 C 2.238281 -0.320312 2.6875 -0.800781 2.84375 -1.4375 C 3.007812 -2.070312 3.09375 -2.742188 3.09375 -3.453125 C 3.09375 -4.679688 3.128906 -5.78125 3.203125 -6.75 C 3.273438 -7.726562 3.582031 -8.578125 4.125 -9.296875 C 4.675781 -10.023438 5.671875 -10.59375 7.109375 -11 C 5.671875 -11.445312 4.632812 -12.097656 4 -12.953125 C 3.363281 -13.804688 3.046875 -14.96875 3.046875 -16.4375 C 3.046875 -17.050781 3.0625 -17.703125 3.09375 -18.390625 C 3.125 -19.085938 3.039062 -19.726562 2.84375 -20.3125 C 2.65625 -20.90625 2.207031 -21.351562 1.5 -21.65625 L 14.671875 -21.65625 L 15.640625 -16.21875 C 14.992188 -17.75 14.015625 -18.976562 12.703125 -19.90625 C 11.390625 -20.832031 9.894531 -21.296875 8.21875 -21.296875 L 6.671875 -21.296875 L 6.671875 -13.828125 C 6.671875 -13.472656 6.660156 -13.085938 6.640625 -12.671875 C 6.628906 -12.265625 6.703125 -11.910156 6.859375 -11.609375 C 7.023438 -11.316406 7.359375 -11.171875 7.859375 -11.171875 L 9.640625 -11.171875 C 10.429688 -11.171875 11.039062 -11.347656 11.46875 -11.703125 C 11.894531 -12.054688 12.222656 -12.503906 12.453125 -13.046875 C 12.691406 -13.597656 12.945312 -14.179688 13.21875 -14.796875 L 13.21875 -7.15625 C 12.976562 -7.78125 12.734375 -8.367188 12.484375 -8.921875 C 12.234375 -9.484375 11.898438 -9.941406 11.484375 -10.296875 C 11.078125 -10.648438 10.472656 -10.828125 9.671875 -10.828125 L 7.859375 -10.828125 C 7.359375 -10.828125 7.023438 -10.671875 6.859375 -10.359375 C 6.703125 -10.046875 6.628906 -9.675781 6.640625 -9.25 C 6.660156 -8.820312 6.671875 -8.4375 6.671875 -8.09375 Z M 6.671875 -8.09375 "/></g></g></g></svg>